<svg id="Capa_1" data-name="Capa 1" xmlns="http://www.w3.org/2000/svg" viewBox="0 0 50 50"><defs><style>.cls-1{fill:#fff;fill-rule:evenodd;}</style></defs><path class="cls-1" d="M45,25A20,20,0,1,1,25.1,5,20,20,0,0,1,45,25M24.93,30h2.41a1,1,0,0,0,1-.83,3.12,3.12,0,0,1,.73-1.45,14.47,14.47,0,0,1,2.44-1.82A6.84,6.84,0,0,0,33.74,16a10.54,10.54,0,0,0-11.46-3.92,11.08,11.08,0,0,0-6.38,5.05.83.83,0,0,0,.26,1.26c1.06.81,2.11,1.62,3.19,2.42a.89.89,0,0,0,1.39-.16c.55-.61,1.06-1.25,1.65-1.83a4,4,0,0,1,5-.34,2,2,0,0,1,.17,3.27,7.62,7.62,0,0,1-1.17.77c-.57.34-1.2.6-1.73,1-1.86,1.32-3.19,3-3,5.43,0,.81.27,1.08,1.09,1.09s1.47,0,2.19,0m.13,1.66c-.78,0-1.56,0-2.33,0s-1.06.26-1.07,1c0,1.53,0,3.07,0,4.6,0,.77.29,1,1.05,1.05h4.6c.71,0,1-.27,1-.94q0-2.4,0-4.8c0-.68-.32-.93-1-.94s-1.51,0-2.26,0"/></svg>