<svg id="Capa_1" data-name="Capa 1" xmlns="http://www.w3.org/2000/svg" viewBox="0 0 50 50"><defs><style>.cls-1{fill:#008375;}</style></defs><path class="cls-1" d="M28.43,23V17.65a1,1,0,0,0-1-1.07H15.68a1,1,0,0,0-1,1.07V23a1,1,0,0,0,1,1.06H27.46a1,1,0,0,0,1-1.06"/><path class="cls-1" d="M36.89,6.12H13.11A8.23,8.23,0,0,0,5,14.24V27.48a8.12,8.12,0,0,0,8.11,8.12h1.71v6a2.39,2.39,0,0,0,1.15,2,1.91,1.91,0,0,0,2.61-.36l9.71-7.68h8.6A8.12,8.12,0,0,0,45,27.37V14.24a8.12,8.12,0,0,0-8.11-8.12m5.83,10.46H31.11a1,1,0,0,0-1,1.07V23a1,1,0,0,0,1,1.06H42.72v1.82H38A1,1,0,0,0,37,27v5.38a1.08,1.08,0,0,0,.39.83c-.17,0-.33,0-.5,0h-2a1.09,1.09,0,0,0,.42-.86V27a1,1,0,0,0-1-1.06H22.54a1,1,0,0,0-1,1.06v5.38a1,1,0,0,0,1,1.07h4.7l-2.3,1.81H17.09V33.42h1.8a1,1,0,0,0,1-1.07V27a1,1,0,0,0-1-1.06H7.28V24.09H12A1,1,0,0,0,13,23V17.65a1,1,0,0,0-1-1.07H7.28V14.77H18.89a1,1,0,0,0,1-1.06V8.4h1.71v5.31a1,1,0,0,0,1,1.06H34.32a1,1,0,0,0,1-1.06V8.4H37v5.3a1,1,0,0,0,1,1.06h4.75Z"/></svg>