<svg id="Capa_1" data-name="Capa 1" xmlns="http://www.w3.org/2000/svg" viewBox="0 0 50 50"><defs><style>.cls-1{fill:#9298aa;fill-rule:evenodd;}</style></defs><path class="cls-1" d="M36.22,41.56a8.09,8.09,0,0,1-.89-.49c-1-.8-2.06-1.6-3.07-2.41a.53.53,0,0,0-.64-.08c-.55.27-1.13.49-1.71.71a.5.5,0,0,0-.37.46c-.2,1.4-.4,2.79-.65,4.19-.14.87-.41,1.06-1.28,1.06H22.37c-.82,0-1.1-.23-1.24-1.06-.21-1.36-.41-2.72-.61-4.09a.61.61,0,0,0-.45-.58,16.33,16.33,0,0,1-1.58-.64.61.61,0,0,0-.73.07c-1,.81-2.09,1.6-3.13,2.4-.7.52-1.05.53-1.67-.07-1.31-1.3-2.62-2.59-3.88-3.92-.6-.63-.57-1,0-1.73.75-1,1.5-2,2.28-2.93a.68.68,0,0,0,.07-.84,17.2,17.2,0,0,1-.7-1.72.66.66,0,0,0-.59-.5C8.74,29.21,7.39,29,6,28.81a1,1,0,0,1-1-1.2V22.28c0-.78.26-1.08,1-1.2,1.39-.22,2.76-.43,4.14-.63a.52.52,0,0,0,.5-.4c.23-.59.46-1.18.74-1.76a.48.48,0,0,0-.05-.58c-.78-1-1.55-2-2.34-3-.66-.82-.71-1.11,0-1.88,1.21-1.29,2.47-2.56,3.77-3.77.81-.75,1.09-.69,2,0s2,1.55,3,2.3a.69.69,0,0,0,.58.06,16.59,16.59,0,0,0,1.75-.73.67.67,0,0,0,.33-.42c.24-1.39.42-2.79.67-4.17.15-.91.4-1.07,1.32-1.08h5.23c.79,0,1.07.21,1.19,1,.23,1.35.43,2.72.62,4.09a.68.68,0,0,0,.54.66,11.38,11.38,0,0,1,1.54.64.58.58,0,0,0,.68-.09c1.1-.84,2.2-1.67,3.31-2.49a1,1,0,0,1,1.41,0c1.33,1.32,2.66,2.64,3.93,4,.66.69.63,1.05,0,1.8-.75,1-1.5,2-2.27,2.94a.54.54,0,0,0-.08.71c.29.6.53,1.22.77,1.84a.53.53,0,0,0,.48.42c1.39.19,2.76.42,4.14.63.74.11,1,.41,1,1.17,0,1.79,0,3.59,0,5.38a1,1,0,0,1-1,1.17c-1.4.21-2.8.42-4.19.66a.77.77,0,0,0-.45.36c-.27.57-.48,1.18-.76,1.74a.48.48,0,0,0,.06.6l2.43,3.11c.53.69.59,1,0,1.63-1.27,1.35-2.59,2.65-3.91,4a4.83,4.83,0,0,1-1,.6M31.67,25a6.67,6.67,0,1,0-6.8,6.64A6.64,6.64,0,0,0,31.67,25"/></svg>