<svg id="Capa_1" data-name="Capa 1" xmlns="http://www.w3.org/2000/svg" viewBox="0 0 50 50"><defs><style>.cls-1{fill:#fff;}</style></defs><path class="cls-1" d="M5.29,30.35c.84-1.53,4.58-1.24,9.57,1.32a1.31,1.31,0,0,0,0,.28c.19,1.54,3.37,2.15,11.35.08L25,32.15l-2.72.34c-1.11,0-5.42.58-6.67-.76-.2-.21-.13-1-.12-1.07.19-1.44,1.58-1.55,5.18-2,.15,0,3-.84,3.12-.86,2.15-.59,2.84-.75,4.38-1.09a11,11,0,0,1,3.24-.34,9.58,9.58,0,0,1,3,.51c4,1.33,5.69,2.45,9.35,4.44L45,32l-4.25,7.5-1-.64c-2.82-1.83-4.62-3.4-5.56-3.32s-3.94,1.22-6.65,2.07c-2.48.77-3,.76-5.52,1.48-3.5,1-3.07.67-5.93-.75-1.78-1-2.17-1.26-3.32-2-6.74-4.07-8.5-4-7.43-6"/><path class="cls-1" d="M23.56,22.92l-6.18,2.91v-7l6.18-2.91Zm-13.77-7L16,18.79v7L9.79,22.92Zm6.89,1.67L10.62,14.7l6.06-2.85,6.05,2.85ZM25,14.71a.69.69,0,0,0-.41-.71L17,10.42h0l-.07,0-.07,0h-.28l-.06,0-.07,0h0L8.77,14a.7.7,0,0,0-.4.71v8.66a.69.69,0,0,0,.4.64l7.6,3.58.07,0,.06,0,.18,0,.17,0,.06,0,.07,0L24.57,24a.69.69,0,0,0,.41-.64V14.71"/></svg>