<svg id="Capa_1" data-name="Capa 1" xmlns="http://www.w3.org/2000/svg" viewBox="0 0 50 50"><defs><style>.cls-1{fill:#9298aa;}</style></defs><path class="cls-1" d="M19.16,12.93l4.1-4.07-.44-.44a7.32,7.32,0,0,0-5.16-2.17,7.24,7.24,0,0,0-5.17,2.13l-7.33,7.2,5.61,5.62,4.15-4.12L39.16,41.44a3,3,0,1,0,4.2-4.19Z"/><path class="cls-1" d="M38.85,17.17l-4.23-4.24,4.85-4.86L38.32,6.91l-5.21.67,0,0a9.11,9.11,0,0,0-2.65,7.21l.18,2.08L27.77,19.7,32,23.89l3-3,1.8.18a9.24,9.24,0,0,0,7.33-2.61l.8-5-1.15-1.15Z"/><path class="cls-1" d="M21.72,25.8l-3.88,3.84L16,29.46a9.25,9.25,0,0,0-7.33,2.61L7.94,37.2l1.15,1.15L14,33.49l4.24,4.24L13.33,42.6l1.15,1.15,5.21-.67,0,0a9.11,9.11,0,0,0,2.65-7.21l-.17-2.07L26,30Z"/></svg>