<svg id="Capa_1" data-name="Capa 1" xmlns="http://www.w3.org/2000/svg" viewBox="0 0 50 50"><defs><style>.cls-1{fill:#9298aa;}</style></defs><path class="cls-1" d="M35,39.22a1.43,1.43,0,1,0,1.41,1.42A1.44,1.44,0,0,0,35,39.22M25,18v-.69c0-2.2,0-4.41,0-6.61a2.87,2.87,0,0,0-3-2.87,3,3,0,0,0-2.72,3c0,4,0,8,0,12v.77a5.79,5.79,0,0,1-.92-.31c-.56-.29-1.07-.66-1.64-.92a10.79,10.79,0,0,0-2.17-.83c-2.23-.5-3.67.64-3.83,2.92a1.09,1.09,0,0,0,.58,1.18c.88.49,1.77,1,2.65,1.44a27.82,27.82,0,0,1,6.64,5.24A4.92,4.92,0,0,1,22.16,36a1.45,1.45,0,0,0,0,.3H36.32a23.83,23.83,0,0,1,.43-2.92c.53-1.9,1.17-3.77,1.77-5.65a12.65,12.65,0,0,0,.74-4.64,3.75,3.75,0,0,0-1.38-3.06,4.39,4.39,0,0,0-3-.63.94.94,0,0,1-.7-.15,3.57,3.57,0,0,0-3.95-1,.51.51,0,0,1-.44,0C28.31,17,26.74,17.05,25,18m-8.55,1c0-1.81,0-3.58,0-5.35a30.2,30.2,0,0,1,.1-3.81,5.66,5.66,0,0,1,6-4.84,5.75,5.75,0,0,1,5.29,5.58c0,1.27,0,2.54,0,3.73.88.31,1.69.61,2.51.89a1.19,1.19,0,0,0,.5,0,6.55,6.55,0,0,1,4.27,1.11,1.36,1.36,0,0,0,.69.21,6.24,6.24,0,0,1,6.27,6.35A19.7,19.7,0,0,1,40.83,30c-.51,1.6-1,3.22-1.46,4.84a5.11,5.11,0,0,0-.09,1.36c0,1.88,0,3.76,0,5.65a2.85,2.85,0,0,1-3.06,3.07H22.35a2.85,2.85,0,0,1-3-3c0-2,0-4,0-5.93a2.29,2.29,0,0,0-.46-1.35A21,21,0,0,0,13,29.76c-.89-.51-1.83-.93-2.71-1.45C8.09,27,7.54,25.7,8.07,23.2c.77-3.58,3.57-5.29,7.3-4.47l1.09.28"/></svg>